<svg width="24" height="24" viewBox="0 0 26 26" fill="none" xmlns="http://www.w3.org/2000/svg">
    <path d="M12.779 0H12.721C5.69537 0 0 5.69537 0 12.721V12.779C0 19.8046 5.69537 25.5 12.721 25.5H12.779C19.8046 25.5 25.5 19.8046 25.5 12.779V12.721C25.5 5.69537 19.8046 0 12.779 0Z" fill="#8E94F2"/>
    <path d="M11.763 13.2301C11.5414 12.9522 11.2877 12.7396 11.0036 12.5958C11.2546 12.443 11.4708 12.2554 11.6495 12.0321C11.9506 11.6551 12.1034 11.1824 12.1034 10.6268C12.1034 10.1631 11.981 9.73695 11.7389 9.36083C11.4976 8.98472 11.1385 8.68275 10.6713 8.46297C10.2138 8.24767 9.66263 8.13867 9.03458 8.13867H5.46191V17.3647H9.19896C9.81093 17.3647 10.3577 17.253 10.8231 17.0333C11.2975 16.8099 11.6674 16.4972 11.9211 16.105C12.1757 15.711 12.3053 15.2634 12.3053 14.7748C12.3053 14.2021 12.123 13.683 11.763 13.231V13.2301ZM9.86543 11.5487C9.64476 11.7274 9.32225 11.8185 8.90861 11.8185H7.36305V9.77447H8.90861C9.32046 9.77447 9.64119 9.86828 9.86185 10.0541C10.0736 10.2319 10.1763 10.4776 10.1763 10.8028C10.1763 11.128 10.0745 11.3799 9.86543 11.5487ZM7.36305 13.4552H9.02207C9.45626 13.4552 9.79038 13.5606 10.0432 13.7777C10.2853 13.9859 10.4032 14.262 10.4032 14.6229C10.4032 14.9838 10.2943 15.2384 10.0691 15.4287C9.83595 15.6262 9.50093 15.7262 9.0721 15.7262H7.36305V13.4552Z" fill="white"/>
    <path d="M19.6036 11.6881C19.3159 11.1681 18.9086 10.7581 18.3922 10.4704C17.8767 10.1827 17.2808 10.0371 16.6233 10.0371C15.9657 10.0371 15.3252 10.1872 14.7972 10.4829C14.2683 10.7795 13.852 11.2057 13.5607 11.7515C13.2695 12.2965 13.1221 12.9362 13.1221 13.6527C13.1221 14.3692 13.2739 15.0097 13.5741 15.5538C13.8743 16.0988 14.2942 16.5276 14.8231 16.8278C15.3511 17.1279 15.9568 17.2798 16.6242 17.2798C17.4434 17.2798 18.1393 17.0717 18.6932 16.6616C19.2471 16.2515 19.6349 15.7173 19.8466 15.0749L19.8618 15.0294H18.2412L18.2314 15.049C17.9196 15.6807 17.3791 16.0005 16.6233 16.0005C16.0971 16.0005 15.6468 15.8334 15.285 15.5055C14.9321 15.1848 14.7293 14.756 14.6819 14.2298H19.9815L19.986 14.2003C20.0199 13.9886 20.0369 13.7491 20.0369 13.4892C20.0369 12.8138 19.8913 12.208 19.6036 11.6881ZM15.31 11.781C15.6548 11.4728 16.0756 11.3173 16.5598 11.3173C17.095 11.3173 17.5497 11.4755 17.9115 11.7882C18.2635 12.0919 18.4502 12.5002 18.4663 13.0005H14.6971C14.7686 12.4921 14.975 12.0821 15.3109 11.7819L15.31 11.781Z" fill="white"/>
    <path d="M18.3442 8.35156H14.8145V9.18777H18.3442V8.35156Z" fill="white"/>
</svg>
