<svg width="24" height="24" viewBox="0 0 26 26" fill="none" xmlns="http://www.w3.org/2000/svg">
    <path d="M12.779 0H12.721C5.69536 0 0 5.69537 0 12.721V12.779C0 19.8046 5.69536 25.5 12.721 25.5H12.779C19.8046 25.5 25.5 19.8046 25.5 12.779V12.721C25.5 5.69537 19.8046 0 12.779 0Z" fill="#8E94F2"/>
    <path d="M4.82972 12.3155C4.86546 12.2977 4.90121 12.2807 4.93605 12.2646C5.54177 11.9841 6.15553 11.7214 6.76839 11.4588C6.80145 11.4588 6.85682 11.4204 6.88809 11.4079C6.93544 11.3873 6.9828 11.3677 7.03015 11.3471C7.12128 11.3078 7.21241 11.2694 7.30264 11.2301C7.48489 11.1524 7.66623 11.0746 7.84849 10.9969L8.93931 10.5297C9.66653 10.2188 10.3947 9.90696 11.1219 9.59606C11.8491 9.28516 12.5772 8.97337 13.3044 8.66247C14.0316 8.35157 14.7597 8.03978 15.487 7.72888C16.2142 7.41799 16.9423 7.10619 17.6695 6.79529C17.8312 6.72561 18.0063 6.62197 18.1796 6.5916C18.3253 6.56569 18.4673 6.51566 18.6138 6.48797C18.8917 6.43526 19.1981 6.41382 19.4643 6.52906C19.5564 6.56927 19.6412 6.62555 19.7118 6.69613C20.0495 7.03025 20.0021 7.57879 19.9307 8.04871C19.4331 11.3239 18.9354 14.5999 18.4369 17.8751C18.369 18.3245 18.2761 18.8176 17.9214 19.1017C17.6213 19.342 17.1942 19.3688 16.8235 19.267C16.4527 19.1643 16.1257 18.949 15.805 18.7372C14.4748 17.8563 13.1436 16.9755 11.8134 16.0946C11.4971 15.8855 11.1451 15.6121 11.1487 15.2325C11.1505 15.0037 11.2871 14.8001 11.4265 14.6187C12.5826 13.1107 14.2505 12.0743 15.4914 10.636C15.6665 10.4332 15.8041 10.0669 15.5638 9.94985C15.4209 9.88016 15.2565 9.97486 15.126 10.0651C13.4858 11.2042 11.8464 12.3441 10.2062 13.4832C9.67101 13.8549 9.10996 14.2372 8.46494 14.3283C7.88781 14.4105 7.30711 14.2497 6.74874 14.0853C6.2806 13.9478 5.81335 13.8066 5.34789 13.661C5.10042 13.5842 4.84491 13.5011 4.65373 13.3269C4.46254 13.1526 4.35267 12.8596 4.46792 12.6273C4.54028 12.4817 4.68054 12.3897 4.82795 12.3146L4.82972 12.3155Z" fill="#FEFFFC"/>
</svg>
