<svg id="viber" width="24" height="24" viewBox="0 0 26 26" fill="none" xmlns="http://www.w3.org/2000/svg">
    <path d="M12.779 0H12.721C5.69537 0 0 5.69537 0 12.721V12.779C0 19.8046 5.69537 25.5 12.721 25.5H12.779C19.8046 25.5 25.5 19.8046 25.5 12.779V12.721C25.5 5.69537 19.8046 0 12.779 0Z" fill="#8E94F2"/>
    <path d="M15.234 16.4801C11.9705 16.4801 9.31535 13.8241 9.31445 10.5606C9.31535 9.73327 9.98897 9.06055 10.8145 9.06055C10.8993 9.06055 10.9833 9.06769 11.0637 9.08199C11.2406 9.11147 11.4086 9.17133 11.5631 9.26156C11.5855 9.27496 11.6006 9.29641 11.6042 9.32142L11.9491 11.495C11.9535 11.52 11.9455 11.546 11.9285 11.5647C11.7382 11.7756 11.4952 11.9274 11.2245 12.0034L11.0941 12.04L11.1432 12.166C11.5881 13.2988 12.494 14.2038 13.6277 14.6505L13.7537 14.7005L13.7903 14.5701C13.8663 14.2994 14.0181 14.0564 14.229 13.8661C14.2442 13.8518 14.2647 13.8446 14.2853 13.8446C14.2897 13.8446 14.2942 13.8446 14.2996 13.8455L16.4732 14.1904C16.4991 14.1949 16.5205 14.2091 16.5339 14.2315C16.6233 14.386 16.6831 14.5549 16.7135 14.7318C16.7278 14.8104 16.7341 14.8935 16.7341 14.9801C16.7341 15.8065 16.0613 16.4792 15.234 16.4801Z" fill="#FDFDFD"/>
    <path d="M21.0209 12.0337C20.8449 10.045 19.9337 8.20012 18.4551 6.83949C16.9676 5.47082 15.0379 4.7168 13.0197 4.7168C8.59031 4.7168 4.98638 8.32073 4.98638 12.7501C4.98638 14.2367 5.39644 15.6849 6.17279 16.9464L4.44141 20.779L9.98489 20.1885C10.9489 20.5834 11.9691 20.7835 13.0188 20.7835C13.2949 20.7835 13.5781 20.7692 13.8622 20.7397C14.1123 20.7129 14.3652 20.6736 14.6135 20.6236C18.3229 19.874 21.0307 16.5819 21.0522 12.793V12.7501C21.0522 12.5089 21.0415 12.2677 21.02 12.0345L21.0209 12.0337ZM10.1984 18.5063L7.13141 18.8332L8.04713 16.8043L7.86398 16.5587C7.85058 16.5408 7.83718 16.5229 7.822 16.5024C7.02688 15.4044 6.60698 14.1072 6.60698 12.751C6.60698 9.21501 9.48369 6.3383 13.0197 6.3383C16.3324 6.3383 19.1403 8.92287 19.411 12.2222C19.4253 12.399 19.4334 12.5768 19.4334 12.7519C19.4334 12.802 19.4325 12.8511 19.4316 12.9038C19.3637 15.8618 17.2973 18.374 14.4063 19.0137C14.1856 19.0628 13.9596 19.1004 13.7344 19.1245C13.5004 19.1513 13.26 19.1647 13.0215 19.1647C12.1719 19.1647 11.3464 19.0003 10.5665 18.6751C10.4798 18.6403 10.3949 18.6027 10.3154 18.5643L10.1993 18.508L10.1984 18.5063Z" fill="#FDFDFD"/>
</svg>

