<svg width="24" height="24" viewBox="0 0 26 26" fill="none" xmlns="http://www.w3.org/2000/svg">
    <path d="M12.779 0H12.721C5.69537 0 0 5.69537 0 12.721V12.779C0 19.8046 5.69537 25.5 12.721 25.5H12.779C19.8046 25.5 25.5 19.8046 25.5 12.779V12.721C25.5 5.69537 19.8046 0 12.779 0Z" fill="#8E94F2"/>
    <path d="M20.3109 12.075C19.9678 8.20483 16.7079 5.16016 12.7501 5.16016C8.56372 5.16016 5.15723 8.56664 5.15723 12.7513C5.15723 14.2879 5.61732 15.72 6.40618 16.9163L5.46009 19.013C5.21083 19.5643 5.65484 20.1771 6.25609 20.1137L9.77873 19.7385C10.6918 20.128 11.6959 20.3433 12.7501 20.3433C13.0182 20.3433 13.2844 20.329 13.5453 20.3022C13.7865 20.2763 14.0232 20.2397 14.2573 20.1932C17.7102 19.4946 20.3207 16.4445 20.3413 12.7951V12.7513C20.3413 12.5244 20.3314 12.2965 20.3109 12.075ZM16.9669 11.0422L15.3731 13.5008L14.5298 14.8016C14.3502 15.0786 13.9723 15.1447 13.7096 14.9446L12.3115 13.885L11.4494 13.2319C11.3797 13.1792 11.2823 13.181 11.2144 13.2364L9.09886 14.9624C8.75848 15.2403 8.29302 14.8222 8.53156 14.4541L10.0244 12.1527L10.8678 10.851C11.0473 10.5741 11.4243 10.508 11.6879 10.7072L13.045 11.7364L13.9071 12.3886C13.9768 12.4422 14.0741 12.4404 14.142 12.3841L16.3987 10.5339C16.7391 10.2552 17.2064 10.6733 16.9669 11.0422Z" fill="white"/>
</svg>
