<svg width="79" height="13" viewBox="0 0 79 13" fill="none" xmlns="http://www.w3.org/2000/svg">
    <path d="M1.344 4C1.344 3.73333 1.28533 3.49333 1.168 3.28C1.05067 3.06667 0.922667 2.912 0.784 2.816C0.656 2.70933 0.538667 2.592 0.432 2.464C0.336 2.32533 0.298667 2.18667 0.32 2.048C0.341333 1.92 0.48 1.81333 0.736 1.728C0.992 1.632 1.296 1.568 1.648 1.536C2.01067 1.49333 2.32 1.46667 2.576 1.456C2.832 1.43467 3.05067 1.424 3.232 1.424C5.10933 1.424 6.06933 1.632 6.112 2.048C6.12267 2.18667 6.07467 2.32533 5.968 2.464C5.872 2.592 5.75467 2.70933 5.616 2.816C5.488 2.912 5.37067 3.06667 5.264 3.28C5.15733 3.48267 5.104 3.72267 5.104 4V6.496C6.58667 4.992 7.49333 4.05867 7.824 3.696C8.05867 3.42933 8.208 3.216 8.272 3.056C8.34667 2.88533 8.35733 2.768 8.304 2.704C8.25067 2.62933 8.192 2.53333 8.128 2.416C8.07467 2.29867 8.05867 2.17067 8.08 2.032C8.12267 1.62667 8.69333 1.424 9.792 1.424C10.9867 1.424 11.5787 1.63733 11.568 2.064C11.568 2.256 11.4933 2.40533 11.344 2.512C11.1947 2.608 10.9387 2.76267 10.576 2.976C10.224 3.18933 9.87733 3.472 9.536 3.824C9.472 3.888 9.27467 4.09067 8.944 4.432C8.61333 4.77333 8.32533 5.072 8.08 5.328C9.56267 7.61067 10.64 9.10933 11.312 9.824C11.4933 10.016 11.7013 10.1973 11.936 10.368C12.1813 10.528 12.352 10.6667 12.448 10.784C12.5547 10.8907 12.6133 11.04 12.624 11.232C12.6347 11.7653 11.7493 12.032 9.968 12.032C8.29333 12.032 7.376 11.8187 7.216 11.392C7.17333 11.264 7.17867 11.0933 7.232 10.88C7.28533 10.6667 7.296 10.4267 7.264 10.16C7.24267 9.89333 7.11467 9.59467 6.88 9.264C6.48533 8.70933 6.096 8.19733 5.712 7.728L5.104 8.336V9.472C5.104 9.74933 5.15733 9.99467 5.264 10.208C5.37067 10.4213 5.488 10.5813 5.616 10.688C5.75467 10.784 5.872 10.9013 5.968 11.04C6.07467 11.168 6.12267 11.3013 6.112 11.44C6.06933 11.8453 5.10933 12.048 3.232 12.048C3.04 12.048 2.82133 12.0427 2.576 12.032C2.33067 12.0213 2.02133 12 1.648 11.968C1.28533 11.9253 0.976 11.8613 0.72 11.776C0.474667 11.68 0.341333 11.568 0.32 11.44C0.298667 11.3013 0.336 11.168 0.432 11.04C0.538667 10.9013 0.656 10.7787 0.784 10.672C0.922667 10.5653 1.05067 10.4053 1.168 10.192C1.28533 9.97867 1.344 9.73867 1.344 9.472V4ZM18.1625 11.136C18.8132 10.9867 18.8665 9.89333 18.3225 7.856C17.8745 6.04267 17.3092 5.136 16.6265 5.136C16.5412 5.136 16.4772 5.14133 16.4345 5.152C15.8052 5.30133 15.7465 6.4 16.2585 8.448C16.4505 9.248 16.6958 9.89867 16.9945 10.4C17.3038 10.9013 17.6345 11.152 17.9865 11.152C18.0612 11.152 18.1198 11.1467 18.1625 11.136ZM17.2665 4.144C18.5892 4.144 19.7145 4.52267 20.6425 5.28C21.5812 6.02667 22.0505 6.98133 22.0505 8.144C22.0505 9.30667 21.5812 10.2667 20.6425 11.024C19.7145 11.7707 18.5892 12.144 17.2665 12.144C15.9332 12.144 14.8025 11.7707 13.8745 11.024C12.9465 10.2773 12.4825 9.31733 12.4825 8.144C12.4825 6.97067 12.9465 6.01067 13.8745 5.264C14.8025 4.51733 15.9332 4.144 17.2665 4.144ZM29.5176 7.28C30.7763 7.90933 31.3896 8.66667 31.3576 9.552C31.347 10.0747 31.1656 10.528 30.8136 10.912C30.4723 11.2853 30.0296 11.5627 29.4856 11.744C28.9416 11.9147 28.419 12.0373 27.9176 12.112C27.427 12.1867 26.9363 12.224 26.4456 12.224C25.315 12.224 24.3816 12.0587 23.6456 11.728C22.9096 11.3973 22.4936 10.9867 22.3976 10.496C22.323 10.1653 22.3763 9.872 22.5576 9.616C22.739 9.34933 23.0216 9.17867 23.4056 9.104C23.5336 9.08267 23.6243 9.072 23.6776 9.072C24.2536 9.072 24.7176 9.45067 25.0696 10.208C25.2936 10.688 25.5496 11.0453 25.8376 11.28C26.1256 11.504 26.515 11.616 27.0056 11.616C27.3576 11.616 27.6403 11.5413 27.8536 11.392C28.067 11.2427 28.1736 11.0613 28.1736 10.848C28.1736 10.7413 28.1363 10.64 28.0616 10.544C27.9976 10.4373 27.9176 10.3467 27.8216 10.272C27.7363 10.1973 27.6136 10.1173 27.4536 10.032C27.3043 9.936 27.1816 9.86667 27.0856 9.824C27.0003 9.78133 26.8776 9.728 26.7176 9.664C26.5576 9.6 26.467 9.56267 26.4456 9.552C26.435 9.54133 26.2163 9.44 25.7896 9.248C25.3736 9.04533 25.0696 8.90133 24.8776 8.816C24.6643 8.72 24.451 8.608 24.2376 8.48C24.0243 8.352 23.7843 8.18133 23.5176 7.968C23.2616 7.744 23.0643 7.472 22.9256 7.152C22.7976 6.82133 22.7656 6.46933 22.8296 6.096C23.0536 4.70933 24.5683 4.016 27.3736 4.016C28.419 4.048 29.2296 4.22933 29.8056 4.56C30.3816 4.88 30.6856 5.232 30.7176 5.616C30.739 5.86133 30.6643 6.07467 30.4936 6.256C30.323 6.42667 30.0776 6.512 29.7576 6.512H29.6136C29.4003 6.49067 29.2136 6.42667 29.0536 6.32C28.8936 6.21333 28.7763 6.11733 28.7016 6.032C28.6376 5.936 28.5523 5.78667 28.4456 5.584C28.3496 5.38133 28.291 5.264 28.2696 5.232C28.0136 4.784 27.651 4.56 27.1816 4.56C26.5096 4.56 26.1736 4.77867 26.1736 5.216C26.1736 5.536 26.419 5.808 26.9096 6.032C26.9416 6.05333 27.3096 6.22933 28.0136 6.56C28.7283 6.89067 29.2296 7.13067 29.5176 7.28ZM31.1844 5.12C31.1844 5.03467 31.2164 4.96 31.2804 4.896C31.3444 4.832 31.419 4.8 31.5044 4.8C32.667 4.72533 33.9204 3.744 35.2644 1.856C35.3497 1.73867 35.467 1.68 35.6164 1.68C35.7337 1.68 35.835 1.71733 35.9204 1.792C36.0057 1.86667 36.0484 1.96267 36.0484 2.08V4.8H37.3604C37.4457 4.8 37.5204 4.832 37.5844 4.896C37.6484 4.96 37.6804 5.03467 37.6804 5.12V5.488C37.6804 5.57333 37.6484 5.648 37.5844 5.712C37.5204 5.776 37.4457 5.808 37.3604 5.808H36.0484V8.416C36.0484 8.49067 36.043 8.64533 36.0324 8.88C36.0324 9.104 36.0324 9.264 36.0324 9.36C36.043 9.456 36.0537 9.59467 36.0644 9.776C36.075 9.95733 36.0964 10.096 36.1284 10.192C36.171 10.2773 36.219 10.3787 36.2724 10.496C36.3257 10.6027 36.4004 10.6827 36.4964 10.736C36.5924 10.7787 36.7044 10.8053 36.8324 10.816C36.939 10.816 37.0137 10.8053 37.0564 10.784C37.0884 10.7733 37.131 10.768 37.1844 10.768C37.3444 10.768 37.4564 10.8373 37.5204 10.976C37.595 11.1147 37.5844 11.248 37.4884 11.376C36.987 11.952 36.203 12.24 35.1364 12.24C34.2404 12.24 33.5417 12.016 33.0404 11.568C32.539 11.1093 32.283 10.4747 32.2724 9.664C32.2724 9.54667 32.2724 9.24267 32.2724 8.752C32.2724 8.25067 32.2724 7.67467 32.2724 7.024C32.2724 6.36267 32.2724 5.95733 32.2724 5.808H31.5044C31.419 5.808 31.3444 5.776 31.2804 5.712C31.2164 5.648 31.1844 5.57333 31.1844 5.488V5.12Z" fill="white"/>
    <path d="M48.0449 7.76C48.1729 7.55733 48.3329 7.456 48.5249 7.456C48.6742 7.456 48.7969 7.51467 48.8929 7.632C48.9889 7.74933 49.0155 7.904 48.9729 8.096V8.112C48.6742 9.36 48.0075 10.368 46.9729 11.136C45.9489 11.8933 44.7702 12.272 43.4369 12.272C41.8582 12.272 40.5142 11.7547 39.4049 10.72C38.3062 9.68533 37.7569 8.35733 37.7569 6.736C37.7569 5.18933 38.2689 3.90933 39.2929 2.896C40.3169 1.872 41.5862 1.31733 43.1009 1.232C43.2395 1.22133 43.4422 1.216 43.7089 1.216C44.3809 1.216 44.9942 1.29067 45.5489 1.44C46.1035 1.58933 46.5515 1.776 46.8929 2C47.2342 2.224 47.5275 2.48 47.7729 2.768C48.0182 3.04533 48.1889 3.30133 48.2849 3.536C48.3915 3.77067 48.4555 3.98933 48.4769 4.192C48.5409 4.77867 48.4075 5.23733 48.0769 5.568C47.7462 5.89867 47.3249 6.064 46.8129 6.064C45.6715 6.064 45.0902 5.39733 45.0689 4.064C45.0582 3.44533 44.9249 2.976 44.6689 2.656C44.4129 2.336 44.0555 2.176 43.5969 2.176C43.4262 2.176 43.2929 2.18667 43.1969 2.208C42.7169 2.29333 42.3115 2.60267 41.9809 3.136C41.6609 3.66933 41.5062 4.384 41.5169 5.28C41.5275 6.51733 41.8529 7.59467 42.4929 8.512C43.1329 9.41867 44.0395 9.872 45.2129 9.872C45.6075 9.84 45.9542 9.76533 46.2529 9.648C46.5622 9.52 46.8342 9.33333 47.0689 9.088C47.3035 8.84267 47.4742 8.64533 47.5809 8.496C47.6875 8.336 47.8422 8.09067 48.0449 7.76ZM55.0544 11.136C55.705 10.9867 55.7584 9.89333 55.2144 7.856C54.7664 6.04267 54.201 5.136 53.5184 5.136C53.433 5.136 53.369 5.14133 53.3264 5.152C52.697 5.30133 52.6384 6.4 53.1504 8.448C53.3424 9.248 53.5877 9.89867 53.8864 10.4C54.1957 10.9013 54.5264 11.152 54.8784 11.152C54.953 11.152 55.0117 11.1467 55.0544 11.136ZM54.1584 4.144C55.481 4.144 56.6064 4.52267 57.5344 5.28C58.473 6.02667 58.9424 6.98133 58.9424 8.144C58.9424 9.30667 58.473 10.2667 57.5344 11.024C56.6064 11.7707 55.481 12.144 54.1584 12.144C52.825 12.144 51.6944 11.7707 50.7664 11.024C49.8384 10.2773 49.3744 9.31733 49.3744 8.144C49.3744 6.97067 49.8384 6.01067 50.7664 5.264C51.6944 4.51733 52.825 4.144 54.1584 4.144ZM64.6175 9.984C64.9162 9.90933 65.0975 9.632 65.1615 9.152C65.2362 8.672 65.1882 8.12267 65.0175 7.504C64.8682 6.91733 64.6708 6.43733 64.4255 6.064C64.1802 5.69067 63.9242 5.504 63.6575 5.504C63.5935 5.504 63.5455 5.50933 63.5135 5.52C63.2148 5.59467 63.0282 5.872 62.9535 6.352C62.8895 6.82133 62.9375 7.36533 63.0975 7.984C63.2468 8.57067 63.4442 9.056 63.6895 9.44C63.9455 9.81333 64.2122 10 64.4895 10C64.5428 10 64.5855 9.99467 64.6175 9.984ZM68.6495 9.504C68.6495 9.78133 68.7028 10.0267 68.8095 10.24C68.9162 10.4427 69.0335 10.5973 69.1615 10.704C69.2895 10.8 69.4015 10.9173 69.4975 11.056C69.6042 11.184 69.6522 11.3173 69.6415 11.456C69.6095 11.8613 68.6762 12.064 66.8415 12.064C65.8708 12.064 65.2895 11.584 65.0975 10.624C64.6708 11.584 63.9775 12.096 63.0175 12.16C61.9082 12.16 61.0282 11.7813 60.3775 11.024C59.7268 10.2667 59.3588 9.312 59.2735 8.16C59.1882 6.92267 59.4922 5.94133 60.1855 5.216C60.8895 4.49067 61.7055 4.128 62.6335 4.128C62.6548 4.128 62.6868 4.13333 62.7295 4.144C62.7828 4.144 62.8255 4.144 62.8575 4.144C63.8388 4.19733 64.5642 4.656 65.0335 5.52V4.8C65.0335 3.86133 64.8468 3.35467 64.4735 3.28C64.2815 3.248 64.1428 3.17333 64.0575 3.056C63.9722 2.928 63.9615 2.79467 64.0255 2.656C64.0895 2.51733 64.2282 2.416 64.4415 2.352C64.5482 2.32 64.7455 2.256 65.0335 2.16C65.3322 2.064 65.5242 2 65.6095 1.968C65.7055 1.936 65.8655 1.88267 66.0895 1.808C66.3135 1.72267 66.4895 1.65333 66.6175 1.6C66.7455 1.536 66.9055 1.46133 67.0975 1.376C67.2895 1.28 67.4815 1.17333 67.6735 1.056C67.8868 0.938666 68.0575 0.879999 68.1855 0.879999C68.4522 0.879999 68.6068 1.10933 68.6495 1.568C68.7028 2.016 68.7028 2.45867 68.6495 2.896V9.504ZM73.8539 4.592C73.5125 4.624 73.2459 4.87467 73.0539 5.344C72.8725 5.81333 72.7979 6.27733 72.8299 6.736C72.8619 7.216 72.9685 7.66933 73.1499 8.096C73.3205 8.11733 73.4485 8.128 73.5339 8.128C73.9392 8.128 74.2752 7.96267 74.5419 7.632C74.8085 7.29067 74.9365 6.82133 74.9259 6.224C74.9152 5.81867 74.8192 5.44533 74.6379 5.104C74.4672 4.76267 74.2059 4.592 73.8539 4.592ZM77.6779 8.752C77.7525 8.624 77.8645 8.56 78.0139 8.56C78.1525 8.56 78.2699 8.61333 78.3659 8.72C78.4619 8.82667 78.4885 8.95467 78.4459 9.104C78.2005 10.0107 77.6619 10.7467 76.8299 11.312C76.0085 11.8667 75.0645 12.144 73.9979 12.144C72.7285 12.144 71.6459 11.7653 70.7499 11.008C69.8645 10.2507 69.4219 9.28533 69.4219 8.112C69.4219 6.84267 69.8859 5.85067 70.8139 5.136C71.7525 4.42133 72.8779 4.064 74.1899 4.064C75.4165 4.064 76.3445 4.28267 76.9739 4.72C77.6032 5.14667 77.9605 5.65333 78.0459 6.24C78.1099 6.67733 78.0405 7.072 77.8379 7.424C77.6459 7.776 77.3632 8.05333 76.9899 8.256C76.6272 8.448 76.2379 8.59733 75.8219 8.704C75.4059 8.8 74.9899 8.848 74.5739 8.848C74.0939 8.848 73.7205 8.784 73.4539 8.656C73.9979 9.50933 74.7499 9.936 75.7099 9.936C76.0939 9.91467 76.4619 9.79733 76.8139 9.584C77.1659 9.37067 77.4539 9.09333 77.6779 8.752Z" fill="#8E94F2"/>
</svg>
