<svg width="202" height="30" viewBox="0 0 202 30" fill="none" xmlns="http://www.w3.org/2000/svg">
    <path d="M3.36 8.5C3.36 7.83333 3.21333 7.23333 2.92 6.7C2.62667 6.16667 2.30667 5.78 1.96 5.54C1.64 5.27333 1.34667 4.98 1.08 4.66C0.84 4.31333 0.746667 3.96667 0.8 3.62C0.853333 3.3 1.2 3.03333 1.84 2.82C2.48 2.58 3.24 2.42 4.12 2.34C5.02667 2.23333 5.8 2.16666 6.44 2.14C7.08 2.08667 7.62667 2.06 8.08 2.06C12.7733 2.06 15.1733 2.58 15.28 3.62C15.3067 3.96667 15.1867 4.31333 14.92 4.66C14.68 4.98 14.3867 5.27333 14.04 5.54C13.72 5.78 13.4267 6.16667 13.16 6.7C12.8933 7.20667 12.76 7.80667 12.76 8.5V14.74C16.4667 10.98 18.7333 8.64667 19.56 7.74C20.1467 7.07333 20.52 6.54 20.68 6.14C20.8667 5.71333 20.8933 5.42 20.76 5.26C20.6267 5.07333 20.48 4.83333 20.32 4.54C20.1867 4.24667 20.1467 3.92667 20.2 3.58C20.3067 2.56667 21.7333 2.06 24.48 2.06C27.4667 2.06 28.9467 2.59333 28.92 3.66C28.92 4.14 28.7333 4.51333 28.36 4.78C27.9867 5.02 27.3467 5.40667 26.44 5.94C25.56 6.47333 24.6933 7.18 23.84 8.06C23.68 8.22 23.1867 8.72667 22.36 9.58C21.5333 10.4333 20.8133 11.18 20.2 11.82C23.9067 17.5267 26.6 21.2733 28.28 23.06C28.7333 23.54 29.2533 23.9933 29.84 24.42C30.4533 24.82 30.88 25.1667 31.12 25.46C31.3867 25.7267 31.5333 26.1 31.56 26.58C31.5867 27.9133 29.3733 28.58 24.92 28.58C20.7333 28.58 18.44 28.0467 18.04 26.98C17.9333 26.66 17.9467 26.2333 18.08 25.7C18.2133 25.1667 18.24 24.5667 18.16 23.9C18.1067 23.2333 17.7867 22.4867 17.2 21.66C16.2133 20.2733 15.24 18.9933 14.28 17.82L12.76 19.34V22.18C12.76 22.8733 12.8933 23.4867 13.16 24.02C13.4267 24.5533 13.72 24.9533 14.04 25.22C14.3867 25.46 14.68 25.7533 14.92 26.1C15.1867 26.42 15.3067 26.7533 15.28 27.1C15.1733 28.1133 12.7733 28.62 8.08 28.62C7.6 28.62 7.05333 28.6067 6.44 28.58C5.82667 28.5533 5.05333 28.5 4.12 28.42C3.21333 28.3133 2.44 28.1533 1.8 27.94C1.18667 27.7 0.853333 27.42 0.8 27.1C0.746667 26.7533 0.84 26.42 1.08 26.1C1.34667 25.7533 1.64 25.4467 1.96 25.18C2.30667 24.9133 2.62667 24.5133 2.92 23.98C3.21333 23.4467 3.36 22.8467 3.36 22.18V8.5ZM46.2063 26.34C47.8329 25.9667 47.9663 23.2333 46.6063 18.14C45.4863 13.6067 44.0729 11.34 42.3663 11.34C42.1529 11.34 41.9929 11.3533 41.8863 11.38C40.3129 11.7533 40.1663 14.5 41.4463 19.62C41.9263 21.62 42.5396 23.2467 43.2863 24.5C44.0596 25.7533 44.8863 26.38 45.7663 26.38C45.9529 26.38 46.0996 26.3667 46.2063 26.34ZM43.9663 8.86C47.2729 8.86 50.0863 9.80667 52.4063 11.7C54.7529 13.5667 55.9263 15.9533 55.9263 18.86C55.9263 21.7667 54.7529 24.1667 52.4063 26.06C50.0863 27.9267 47.2729 28.86 43.9663 28.86C40.6329 28.86 37.8063 27.9267 35.4863 26.06C33.1663 24.1933 32.0063 21.7933 32.0063 18.86C32.0063 15.9267 33.1663 13.5267 35.4863 11.66C37.8063 9.79333 40.6329 8.86 43.9663 8.86ZM75.3941 16.7C78.5407 18.2733 80.0741 20.1667 79.9941 22.38C79.9674 23.6867 79.5141 24.82 78.6341 25.78C77.7807 26.7133 76.6741 27.4067 75.3141 27.86C73.9541 28.2867 72.6474 28.5933 71.3941 28.78C70.1674 28.9667 68.9407 29.06 67.7141 29.06C64.8874 29.06 62.5541 28.6467 60.7141 27.82C58.8741 26.9933 57.8341 25.9667 57.5941 24.74C57.4074 23.9133 57.5407 23.18 57.9941 22.54C58.4474 21.8733 59.1541 21.4467 60.1141 21.26C60.4341 21.2067 60.6607 21.18 60.7941 21.18C62.2341 21.18 63.3941 22.1267 64.2741 24.02C64.8341 25.22 65.4741 26.1133 66.1941 26.7C66.9141 27.26 67.8874 27.54 69.1141 27.54C69.9941 27.54 70.7007 27.3533 71.2341 26.98C71.7674 26.6067 72.0341 26.1533 72.0341 25.62C72.0341 25.3533 71.9407 25.1 71.7541 24.86C71.5941 24.5933 71.3941 24.3667 71.1541 24.18C70.9407 23.9933 70.6341 23.7933 70.2341 23.58C69.8607 23.34 69.5541 23.1667 69.3141 23.06C69.1007 22.9533 68.7941 22.82 68.3941 22.66C67.9941 22.5 67.7674 22.4067 67.7141 22.38C67.6874 22.3533 67.1407 22.1 66.0741 21.62C65.0341 21.1133 64.2741 20.7533 63.7941 20.54C63.2607 20.3 62.7274 20.02 62.1941 19.7C61.6607 19.38 61.0607 18.9533 60.3941 18.42C59.7541 17.86 59.2607 17.18 58.9141 16.38C58.5941 15.5533 58.5141 14.6733 58.6741 13.74C59.2341 10.2733 63.0207 8.54 70.0341 8.54C72.6474 8.62 74.6741 9.07333 76.1141 9.9C77.5541 10.7 78.3141 11.58 78.3941 12.54C78.4474 13.1533 78.2607 13.6867 77.8341 14.14C77.4074 14.5667 76.7941 14.78 75.9941 14.78H75.6341C75.1007 14.7267 74.6341 14.5667 74.2341 14.3C73.8341 14.0333 73.5407 13.7933 73.3541 13.58C73.1941 13.34 72.9807 12.9667 72.7141 12.46C72.4741 11.9533 72.3274 11.66 72.2741 11.58C71.6341 10.46 70.7274 9.9 69.5541 9.9C67.8741 9.9 67.0341 10.4467 67.0341 11.54C67.0341 12.34 67.6474 13.02 68.8741 13.58C68.9541 13.6333 69.8741 14.0733 71.6341 14.9C73.4207 15.7267 74.6741 16.3267 75.3941 16.7ZM80.3609 11.3C80.3609 11.0867 80.4409 10.9 80.6009 10.74C80.7609 10.58 80.9476 10.5 81.1609 10.5C84.0676 10.3133 87.2009 7.86 90.5609 3.14C90.7743 2.84667 91.0676 2.7 91.4409 2.7C91.7343 2.7 91.9876 2.79333 92.2009 2.98C92.4143 3.16667 92.5209 3.40667 92.5209 3.7V10.5H95.8009C96.0143 10.5 96.2009 10.58 96.3609 10.74C96.5209 10.9 96.6009 11.0867 96.6009 11.3V12.22C96.6009 12.4333 96.5209 12.62 96.3609 12.78C96.2009 12.94 96.0143 13.02 95.8009 13.02H92.5209V19.54C92.5209 19.7267 92.5076 20.1133 92.4809 20.7C92.4809 21.26 92.4809 21.66 92.4809 21.9C92.5076 22.14 92.5343 22.4867 92.5609 22.94C92.5876 23.3933 92.6409 23.74 92.7209 23.98C92.8276 24.1933 92.9476 24.4467 93.0809 24.74C93.2143 25.0067 93.4009 25.2067 93.6409 25.34C93.8809 25.4467 94.1609 25.5133 94.4809 25.54C94.7476 25.54 94.9343 25.5133 95.0409 25.46C95.1209 25.4333 95.2276 25.42 95.3609 25.42C95.7609 25.42 96.0409 25.5933 96.2009 25.94C96.3876 26.2867 96.3609 26.62 96.1209 26.94C94.8676 28.38 92.9076 29.1 90.2409 29.1C88.0009 29.1 86.2543 28.54 85.0009 27.42C83.7476 26.2733 83.1076 24.6867 83.0809 22.66C83.0809 22.3667 83.0809 21.6067 83.0809 20.38C83.0809 19.1267 83.0809 17.6867 83.0809 16.06C83.0809 14.4067 83.0809 13.3933 83.0809 13.02H81.1609C80.9476 13.02 80.7609 12.94 80.6009 12.78C80.4409 12.62 80.3609 12.4333 80.3609 12.22V11.3Z" fill="#D1D5FF"/>
    <path d="M123.312 17.9C123.632 17.3933 124.032 17.14 124.512 17.14C124.886 17.14 125.192 17.2867 125.432 17.58C125.672 17.8733 125.739 18.26 125.632 18.74V18.78C124.886 21.9 123.219 24.42 120.632 26.34C118.072 28.2333 115.126 29.18 111.792 29.18C107.846 29.18 104.486 27.8867 101.712 25.3C98.9655 22.7133 97.5922 19.3933 97.5922 15.34C97.5922 11.4733 98.8722 8.27333 101.432 5.74C103.992 3.18 107.166 1.79333 110.952 1.58C111.299 1.55333 111.806 1.54 112.472 1.54C114.152 1.54 115.686 1.72667 117.072 2.1C118.459 2.47333 119.579 2.94 120.432 3.5C121.286 4.06 122.019 4.7 122.632 5.42C123.246 6.11333 123.672 6.75333 123.912 7.34C124.179 7.92667 124.339 8.47333 124.392 8.98C124.552 10.4467 124.219 11.5933 123.392 12.42C122.566 13.2467 121.512 13.66 120.232 13.66C117.379 13.66 115.926 11.9933 115.872 8.66C115.846 7.11333 115.512 5.94 114.872 5.14C114.232 4.34 113.339 3.94 112.192 3.94C111.766 3.94 111.432 3.96667 111.192 4.02C109.992 4.23333 108.979 5.00667 108.152 6.34C107.352 7.67333 106.966 9.46 106.992 11.7C107.019 14.7933 107.832 17.4867 109.432 19.78C111.032 22.0467 113.299 23.18 116.232 23.18C117.219 23.1 118.086 22.9133 118.832 22.62C119.606 22.3 120.286 21.8333 120.872 21.22C121.459 20.6067 121.886 20.1133 122.152 19.74C122.419 19.34 122.806 18.7267 123.312 17.9ZM141.636 26.34C143.263 25.9667 143.396 23.2333 142.036 18.14C140.916 13.6067 139.503 11.34 137.796 11.34C137.583 11.34 137.423 11.3533 137.316 11.38C135.743 11.7533 135.596 14.5 136.876 19.62C137.356 21.62 137.969 23.2467 138.716 24.5C139.489 25.7533 140.316 26.38 141.196 26.38C141.383 26.38 141.529 26.3667 141.636 26.34ZM139.396 8.86C142.703 8.86 145.516 9.80667 147.836 11.7C150.183 13.5667 151.356 15.9533 151.356 18.86C151.356 21.7667 150.183 24.1667 147.836 26.06C145.516 27.9267 142.703 28.86 139.396 28.86C136.063 28.86 133.236 27.9267 130.916 26.06C128.596 24.1933 127.436 21.7933 127.436 18.86C127.436 15.9267 128.596 13.5267 130.916 11.66C133.236 9.79333 136.063 8.86 139.396 8.86ZM166.344 23.46C167.09 23.2733 167.544 22.58 167.704 21.38C167.89 20.18 167.77 18.8067 167.344 17.26C166.97 15.7933 166.477 14.5933 165.864 13.66C165.25 12.7267 164.61 12.26 163.944 12.26C163.784 12.26 163.664 12.2733 163.584 12.3C162.837 12.4867 162.37 13.18 162.184 14.38C162.024 15.5533 162.144 16.9133 162.544 18.46C162.917 19.9267 163.41 21.14 164.024 22.1C164.664 23.0333 165.33 23.5 166.024 23.5C166.157 23.5 166.264 23.4867 166.344 23.46ZM176.424 22.26C176.424 22.9533 176.557 23.5667 176.824 24.1C177.09 24.6067 177.384 24.9933 177.704 25.26C178.024 25.5 178.304 25.7933 178.544 26.14C178.81 26.46 178.93 26.7933 178.904 27.14C178.824 28.1533 176.49 28.66 171.904 28.66C169.477 28.66 168.024 27.46 167.544 25.06C166.477 27.46 164.744 28.74 162.344 28.9C159.57 28.9 157.37 27.9533 155.744 26.06C154.117 24.1667 153.197 21.78 152.984 18.9C152.77 15.8067 153.53 13.3533 155.264 11.54C157.024 9.72667 159.064 8.82 161.384 8.82C161.437 8.82 161.517 8.83333 161.624 8.86C161.757 8.86 161.864 8.86 161.944 8.86C164.397 8.99333 166.21 10.14 167.384 12.3V10.5C167.384 8.15333 166.917 6.88667 165.984 6.7C165.504 6.62 165.157 6.43333 164.944 6.14C164.73 5.82 164.704 5.48666 164.864 5.14C165.024 4.79333 165.37 4.54 165.904 4.38C166.17 4.3 166.664 4.14 167.384 3.9C168.13 3.66 168.61 3.5 168.824 3.42C169.064 3.34 169.464 3.20666 170.024 3.02C170.584 2.80667 171.024 2.63333 171.344 2.5C171.664 2.34 172.064 2.15333 172.544 1.94C173.024 1.7 173.504 1.43333 173.984 1.14C174.517 0.846665 174.944 0.699998 175.264 0.699998C175.93 0.699998 176.317 1.27333 176.424 2.42C176.557 3.54 176.557 4.64667 176.424 5.74V22.26ZM190.235 9.98C189.381 10.06 188.715 10.6867 188.235 11.86C187.781 13.0333 187.595 14.1933 187.675 15.34C187.755 16.54 188.021 17.6733 188.475 18.74C188.901 18.7933 189.221 18.82 189.435 18.82C190.448 18.82 191.288 18.4067 191.955 17.58C192.621 16.7267 192.941 15.5533 192.915 14.06C192.888 13.0467 192.648 12.1133 192.195 11.26C191.768 10.4067 191.115 9.98 190.235 9.98ZM199.795 20.38C199.981 20.06 200.261 19.9 200.635 19.9C200.981 19.9 201.275 20.0333 201.515 20.3C201.755 20.5667 201.821 20.8867 201.715 21.26C201.101 23.5267 199.755 25.3667 197.675 26.78C195.621 28.1667 193.261 28.86 190.595 28.86C187.421 28.86 184.715 27.9133 182.475 26.02C180.261 24.1267 179.155 21.7133 179.155 18.78C179.155 15.6067 180.315 13.1267 182.635 11.34C184.981 9.55333 187.795 8.66 191.075 8.66C194.141 8.66 196.461 9.20667 198.035 10.3C199.608 11.3667 200.501 12.6333 200.715 14.1C200.875 15.1933 200.701 16.18 200.195 17.06C199.715 17.94 199.008 18.6333 198.075 19.14C197.168 19.62 196.195 19.9933 195.155 20.26C194.115 20.5 193.075 20.62 192.035 20.62C190.835 20.62 189.901 20.46 189.235 20.14C190.595 22.2733 192.475 23.34 194.875 23.34C195.835 23.2867 196.755 22.9933 197.635 22.46C198.515 21.9267 199.235 21.2333 199.795 20.38Z" fill="#8E94F2"/>
</svg>
